<!-- ICON SVG GITHUB, Selector: icon-github  -->
<svg *ngIf="name == 'icon-github'" [attr.width]="width" [attr.height]="height" stroke-width="1.1" viewBox="0 0 24 24" [attr.fill]="fill" xmlns="http://www.w3.org/2000/svg" color="#000000"><path d="M12 22c5.523 0 10-4.477 10-10S17.523 2 12 2 2 6.477 2 12s4.477 10 10 10z"  stroke-width="1.1" stroke-linecap="round" stroke-linejoin="round"></path><path d="M14.333 19v-1.863c.025-.31-.018-.62-.126-.913a2.18 2.18 0 00-.5-.781c2.093-.227 4.293-1 4.293-4.544 0-.906-.358-1.778-1-2.434a3.211 3.211 0 00-.06-2.448s-.787-.227-2.607.961a9.152 9.152 0 00-4.666 0c-1.82-1.188-2.607-.96-2.607-.96A3.211 3.211 0 007 8.464a3.482 3.482 0 00-1 2.453c0 3.519 2.2 4.291 4.293 4.544a2.18 2.18 0 00-.496.773 2.134 2.134 0 00-.13.902V19M9.667 17.702c-2 .631-3.667 0-4.667-1.948"  stroke-width="1.1" stroke-linecap="round" stroke-linejoin="round"></path></svg>

<!-- ICON SVG WEB, Selector: icon-web  -->
<svg *ngIf="name == 'icon-web'" [attr.width]="width" [attr.height]="height" stroke-width="1.1" viewBox="0 0 24 24" [attr.fill]="fill"  xmlns="http://www.w3.org/2000/svg" color="#000000"><path d="M22 12c0-5.523-4.477-10-10-10S2 6.477 2 12s4.477 10 10 10M13 2.05S16 6 16 12" stroke-width="1.1" stroke-linecap="round" stroke-linejoin="round"></path><path d="M11 21.95S8 18 8 12c0-6 3-9.95 3-9.95M2.63 15.5H12M2.63 8.5h18.74" stroke-width="1.1" stroke-linecap="round" stroke-linejoin="round"></path><path clip-rule="evenodd" d="M21.879 17.917c.494.304.463 1.043-.045 1.101l-2.567.291-1.151 2.312c-.228.459-.933.234-1.05-.334l-1.255-6.116c-.099-.48.333-.782.75-.525l5.318 3.271z" stroke-width="1.1"></path></svg>

<!-- ICON SVG LINKEDIN, Selector: icon-linkedin  -->
<svg *ngIf="name == 'icon-linkedin'" [attr.width]="width" [attr.height]="height" stroke-width="1.1" viewBox="0 0 24 24" [attr.fill]="fill" xmlns="http://www.w3.org/2000/svg" color="#000000"><path d="M21 8v8a5 5 0 01-5 5H8a5 5 0 01-5-5V8a5 5 0 015-5h8a5 5 0 015 5zM7 17v-7" stroke-width="1.1" stroke-linecap="round" stroke-linejoin="round"></path><path d="M11 17v-3.25M11 10v3.75m0 0c0-3.75 6-3.75 6 0V17M7 7.01l.01-.011" stroke-width="1.1" stroke-linecap="round" stroke-linejoin="round"></path></svg>

<!-- ICON SVG SWITCH OFF , Selector: icon-switch-off  -->
<svg *ngIf="name == 'icon-switch-off'" [attr.width]="width" [attr.height]="height" stroke-width="1.1" viewBox="0 0 24 24" [attr.fill]="fill"  xmlns="http://www.w3.org/2000/svg" color="#000000"><path d="M7 13a1 1 0 100-2 1 1 0 000 2z" fill="#000000" [attr.stroke]="stroke" stroke-width="1.1" stroke-linecap="round" stroke-linejoin="round"></path><path d="M17 17H7A5 5 0 017 7h10a5 5 0 010 10z" [attr.stroke]="stroke" stroke-width="1.1"></path></svg>

<!-- ICON SVG SWITCH ON , Selector: icon-switch-on  -->
<svg *ngIf="name == 'icon-switch-on'" [attr.width]="width" [attr.height]="height" stroke-width="1.1" viewBox="0 0 24 24" [attr.fill]="fill" xmlns="http://www.w3.org/2000/svg" color="#000000"><path d="M17 13a1 1 0 100-2 1 1 0 000 2z" fill="#000000" [attr.stroke]="stroke" stroke-width="1.1" stroke-linecap="round" stroke-linejoin="round"></path><path d="M17 17H7A5 5 0 017 7h10a5 5 0 010 10z" [attr.stroke]="stroke" stroke-width="1.1"></path></svg>

<!-- ICON SVG BOOKMARK, Selector: icon-bookmark -->
<svg *ngIf="name == 'icon-bookmark'" [attr.width]="width" [attr.height]="height" stroke-width="1.1" viewBox="0 0 24 24" [attr.fill]="fill" xmlns="http://www.w3.org/2000/svg" color="#000000"><path d="M5 21V5a2 2 0 012-2h10a2 2 0 012 2v16l-5.918-3.805a2 2 0 00-2.164 0L5 21z" [attr.stroke]="stroke" stroke-width="1.1" stroke-linecap="round" stroke-linejoin="round"></path></svg>
